<svg xmlns="http://www.w3.org/2000/svg" xmlns:xlink="http://www.w3.org/1999/xlink" width="250" zoomAndPan="magnify" viewBox="0 0 187.5 112.499997" height="150" preserveAspectRatio="xMidYMid meet" version="1.0"><defs><clipPath id="4e381729d4"><path d="M 0.164062 0 L 186.835938 0 L 186.835938 112.003906 L 0.164062 112.003906 Z M 0.164062 0 " clip-rule="nonzero"/></clipPath><clipPath id="e0fab450e9"><path d="M 80.078125 36.382812 L 130.015625 36.382812 L 130.015625 76.164062 L 80.078125 76.164062 Z M 80.078125 36.382812 " clip-rule="nonzero"/></clipPath><clipPath id="f080e8232b"><path d="M 56.839844 11.199219 L 130.015625 11.199219 L 130.015625 100.800781 L 56.839844 100.800781 Z M 56.839844 11.199219 " clip-rule="nonzero"/></clipPath><clipPath id="c20d63b3da"><path d="M 68.457031 23.808594 L 130.015625 23.808594 L 130.015625 88.605469 L 68.457031 88.605469 Z M 68.457031 23.808594 " clip-rule="nonzero"/></clipPath></defs><g clip-path="url(#4e381729d4)"><path fill="#ffffff" d="M 0.164062 0 L 186.835938 0 L 186.835938 112.003906 L 0.164062 112.003906 Z M 0.164062 0 " fill-opacity="1" fill-rule="nonzero"/><path fill="#004aad" d="M 0.164062 0 L 186.835938 0 L 186.835938 112.003906 L 0.164062 112.003906 Z M 0.164062 0 " fill-opacity="1" fill-rule="nonzero"/></g><g clip-path="url(#e0fab450e9)"><path fill="#ffffff" d="M 124.320312 48.886719 L 118.484375 46.523438 L 118.484375 46.519531 L 112.652344 44.15625 L 112.652344 44.160156 L 106.816406 41.796875 L 106.816406 41.792969 L 100.984375 39.433594 L 93.496094 36.402344 L 80.175781 41.792969 L 80.175781 54.875 C 80.175781 59.964844 81.777344 64.816406 84.808594 68.902344 C 87.101562 71.992188 90.074219 74.449219 93.496094 76.09375 C 96.917969 74.449219 99.894531 71.992188 102.183594 68.902344 C 105.214844 64.816406 106.816406 59.964844 106.816406 54.875 L 106.816406 54.382812 L 100.984375 52.023438 L 100.984375 54.875 C 100.984375 58.703125 99.777344 62.351562 97.5 65.425781 C 96.378906 66.941406 95.019531 68.265625 93.496094 69.34375 C 91.972656 68.265625 90.617188 66.941406 89.496094 65.425781 C 87.214844 62.351562 86.007812 58.703125 86.007812 54.875 L 86.007812 45.726562 L 93.496094 42.699219 L 100.984375 45.726562 L 103.019531 46.550781 L 106.816406 48.089844 L 127.375 56.414062 C 127.375 56.414062 127.375 56.410156 127.375 56.410156 L 130.078125 57.503906 C 130.128906 56.628906 130.152344 55.753906 130.152344 54.875 L 130.152344 51.238281 L 124.320312 48.878906 L 124.320312 48.886719 " fill-opacity="1" fill-rule="nonzero"/></g><g clip-path="url(#f080e8232b)"><path fill="#ffffff" d="M 93.496094 11.230469 L 56.839844 26.0625 L 56.839844 54.875 C 56.839844 59.949219 57.652344 64.957031 59.261719 69.753906 C 60.828125 74.4375 63.117188 78.828125 66.066406 82.800781 C 69.011719 86.777344 72.546875 90.242188 76.574219 93.101562 C 80.699219 96.03125 85.25 98.265625 90.109375 99.742188 L 93.496094 100.769531 L 96.886719 99.742188 C 101.742188 98.265625 106.296875 96.03125 110.421875 93.101562 C 114.449219 90.242188 117.984375 86.777344 120.929688 82.800781 C 123.875 78.828125 126.164062 74.4375 127.734375 69.753906 C 128.417969 67.707031 128.960938 65.617188 129.355469 63.503906 L 123.820312 61.265625 C 123.46875 63.515625 122.925781 65.734375 122.199219 67.902344 C 120.828125 72.003906 118.824219 75.847656 116.242188 79.328125 C 113.664062 82.808594 110.566406 85.839844 107.042969 88.347656 C 103.429688 90.910156 99.445312 92.867188 95.191406 94.15625 L 93.496094 94.671875 L 91.800781 94.15625 C 87.550781 92.867188 83.5625 90.910156 79.953125 88.347656 C 76.425781 85.839844 73.332031 82.808594 70.75 79.328125 C 68.171875 75.847656 66.164062 72.003906 64.792969 67.902344 C 63.386719 63.703125 62.671875 59.320312 62.671875 54.875 L 62.671875 29.996094 L 93.496094 17.523438 L 93.496094 17.519531 L 130.152344 32.355469 L 130.152344 26.0625 L 93.496094 11.230469 " fill-opacity="1" fill-rule="nonzero"/></g><g clip-path="url(#c20d63b3da)"><path fill="#ffffff" d="M 124.320312 36.289062 L 118.484375 33.929688 L 100.984375 26.847656 L 93.496094 23.816406 L 68.507812 33.929688 L 68.507812 54.875 C 68.507812 70.386719 78.65625 84.070312 93.496094 88.574219 C 107.003906 84.476562 116.621094 72.769531 118.242188 59.007812 L 112.59375 56.722656 C 112.246094 62.394531 110.285156 67.773438 106.871094 72.378906 C 103.445312 76.996094 98.847656 80.445312 93.496094 82.421875 C 88.144531 80.445312 83.546875 76.996094 80.121094 72.378906 C 76.339844 67.277344 74.339844 61.226562 74.339844 54.875 L 74.339844 37.863281 L 93.496094 30.109375 L 106.816406 35.5 L 112.652344 37.863281 L 118.484375 40.222656 L 124.320312 42.585938 L 130.152344 44.945312 L 130.152344 38.648438 L 124.320312 36.289062 " fill-opacity="1" fill-rule="nonzero"/></g></svg>