<svg xmlns="http://www.w3.org/2000/svg" width="645" height="387" viewBox="0 0 645 387" version="1.1"><path d="M 315.257 40.724 C 311.823 42.167, 309.187 43.520, 309.399 43.732 C 309.610 43.943, 312.506 42.970, 315.835 41.570 L 321.886 39.022 326.585 41.036 C 329.169 42.144, 331.463 42.870, 331.683 42.650 C 332.012 42.321, 326.552 39.818, 322.500 38.441 C 321.950 38.253, 318.691 39.281, 315.257 40.724 M 334 43.938 C 335.495 44.812, 365.149 56.803, 368 57.686 C 372.876 59.197, 364.596 55.435, 350.208 49.603 C 334.998 43.438, 330.394 41.829, 334 43.938 M 297.769 47.744 C 292.967 49.740, 289.200 51.534, 289.398 51.732 C 289.819 52.152, 308 44.981, 308 44.395 C 308 43.632, 306.425 44.148, 297.769 47.744 M 280.500 55.017 C 278.269 56.113, 277.606 56.710, 279 56.367 C 281.921 55.647, 286.964 53.086, 285.500 53.066 C 284.950 53.059, 282.700 53.937, 280.500 55.017 M 270.500 59.017 C 268.269 60.113, 267.606 60.710, 269 60.367 C 271.921 59.647, 276.964 57.086, 275.500 57.066 C 274.950 57.059, 272.700 57.937, 270.500 59.017 M 373.896 60.092 C 376.313 61.164, 378.470 61.864, 378.687 61.646 C 379.120 61.214, 371.414 57.956, 370.230 58.071 C 369.828 58.109, 371.478 59.019, 373.896 60.092 M 318 61.500 C 315.061 63.180, 315.879 63.468, 319.240 61.937 C 321.151 61.066, 323.179 61.521, 330.442 64.448 C 335.319 66.415, 339.477 67.856, 339.682 67.651 C 340.069 67.264, 322.343 59.973, 321.167 60.035 C 320.800 60.055, 319.375 60.714, 318 61.500 M 260.500 63.072 C 258.300 64.130, 257.625 64.715, 259 64.373 C 261.831 63.668, 267.030 61.062, 265.500 61.114 C 264.950 61.133, 262.700 62.014, 260.500 63.072 M 380.082 62.340 C 380.937 63.306, 400.266 71.067, 400.710 70.623 C 400.918 70.415, 396.906 68.564, 391.794 66.510 C 379.944 61.748, 379.382 61.548, 380.082 62.340 M 309.500 65.017 C 307.269 66.113, 306.606 66.710, 308 66.367 C 310.921 65.647, 315.964 63.086, 314.500 63.066 C 313.950 63.059, 311.700 63.937, 309.500 65.017 M 247.214 68.216 C 243.207 69.891, 240.098 71.432, 240.306 71.639 C 240.688 72.022, 254.970 66.364, 255.854 65.480 C 256.889 64.445, 254.189 65.300, 247.214 68.216 M 293.711 71.215 C 288.328 73.437, 284.090 75.424, 284.295 75.628 C 284.680 76.013, 303.946 68.388, 304.834 67.499 C 305.938 66.395, 303.043 67.362, 293.711 71.215 M 343 69.415 C 344.375 70.150, 346.625 71.031, 348 71.373 C 349.375 71.715, 348.700 71.130, 346.500 70.072 C 341.975 67.896, 339.170 67.370, 343 69.415 M 405.896 73.092 C 408.313 74.164, 410.470 74.864, 410.687 74.646 C 411.120 74.214, 403.414 70.956, 402.230 71.071 C 401.828 71.109, 403.478 72.019, 405.896 73.092 M 233.500 73.945 C 231.300 74.986, 229.950 75.841, 230.500 75.845 C 231.864 75.854, 239.755 72.161, 238.500 72.100 C 237.950 72.074, 235.700 72.904, 233.500 73.945 M 353 73.415 C 354.375 74.150, 356.625 75.031, 358 75.373 C 359.375 75.715, 358.700 75.130, 356.500 74.072 C 351.975 71.896, 349.170 71.370, 353 73.415 M 215.210 81.214 C 208.450 83.985, 203.085 86.419, 203.288 86.622 C 203.674 87.007, 227.931 77.402, 228.823 76.511 C 229.973 75.360, 226.896 76.424, 215.210 81.214 M 275.207 78.672 C 271.745 80.088, 269.082 81.415, 269.288 81.622 C 269.647 81.981, 282.055 77.227, 282.917 76.400 C 283.920 75.436, 281.044 76.284, 275.207 78.672 M 365.879 78.522 C 368.838 79.926, 371.444 80.889, 371.671 80.662 C 371.898 80.436, 370.152 79.470, 367.791 78.515 C 360.949 75.749, 360.043 75.752, 365.879 78.522 M 420.896 79.092 C 423.313 80.164, 425.470 80.864, 425.687 80.646 C 426.120 80.214, 418.414 76.956, 417.230 77.071 C 416.828 77.109, 418.478 78.019, 420.896 79.092 M 375 82.415 C 376.375 83.150, 378.625 84.031, 380 84.373 C 381.375 84.715, 380.700 84.130, 378.500 83.072 C 373.975 80.896, 371.170 80.370, 375 82.415 M 431.879 83.522 C 434.838 84.926, 437.444 85.889, 437.671 85.662 C 437.898 85.436, 436.152 84.470, 433.791 83.515 C 426.949 80.749, 426.043 80.752, 431.879 83.522 M 262.500 84.072 C 260.300 85.130, 259.625 85.715, 261 85.373 C 263.831 84.668, 269.030 82.062, 267.500 82.114 C 266.950 82.133, 264.700 83.014, 262.500 84.072 M 309.711 86.215 C 304.328 88.437, 300.090 90.424, 300.295 90.628 C 300.500 90.833, 305.130 89.160, 310.584 86.911 C 320.892 82.660, 321.126 82.641, 329.500 85.379 C 330.600 85.739, 329.700 85.137, 327.500 84.043 C 322.161 81.386, 321.090 81.517, 309.711 86.215 M 383.063 85.320 C 383.912 86.284, 398.259 92.075, 398.701 91.632 C 398.913 91.420, 396.029 90.016, 392.293 88.512 C 383.193 84.848, 382.407 84.576, 383.063 85.320 M 244.210 91.214 C 237.450 93.985, 232.087 96.420, 232.292 96.625 C 232.702 97.036, 253.666 88.870, 256.642 87.141 C 260.499 84.899, 256.094 86.342, 244.210 91.214 M 335.896 88.092 C 338.313 89.164, 340.470 89.864, 340.687 89.646 C 341.120 89.214, 333.414 85.956, 332.230 86.071 C 331.828 86.109, 333.478 87.019, 335.896 88.092 M 442.717 88.016 L 446.933 89.890 447.253 101.195 L 447.572 112.500 447.786 100.859 L 448 89.217 443.980 87.609 C 438.468 85.403, 437.524 85.707, 442.717 88.016 M 197.693 88.181 L 194.887 89.204 195.309 149.352 C 195.581 188.284, 196.114 210.911, 196.819 213.500 L 197.908 217.500 197.363 213.500 C 197.063 211.300, 196.602 182.627, 196.339 149.781 L 195.861 90.063 199.180 88.613 C 202.976 86.955, 201.907 86.645, 197.693 88.181 M 342.107 90.364 C 342.947 91.309, 377.270 105.063, 377.705 104.629 C 377.898 104.436, 370.731 101.316, 361.778 97.695 C 342.698 89.980, 341.304 89.460, 342.107 90.364 M 282.708 97.214 C 274.573 100.534, 268.082 103.415, 268.284 103.617 C 268.670 104.004, 297.921 92.412, 298.815 91.518 C 299.998 90.335, 296.749 91.484, 282.708 97.214 M 402 93.339 C 403.375 94.115, 405.625 95.048, 407 95.412 L 409.500 96.073 407 94.661 C 405.625 93.885, 403.375 92.952, 402 92.588 L 399.500 91.927 402 93.339 M 412 97.415 C 413.375 98.150, 415.625 99.031, 417 99.373 C 418.375 99.715, 417.700 99.130, 415.500 98.072 C 410.975 95.896, 408.170 95.370, 412 97.415 M 224.500 99.478 C 221.750 100.774, 219.950 101.843, 220.500 101.855 C 221.050 101.867, 223.750 100.817, 226.500 99.522 C 229.250 98.226, 231.050 97.157, 230.500 97.145 C 229.950 97.133, 227.250 98.183, 224.500 99.478 M 420.094 100.351 C 420.952 101.319, 445.271 111.063, 445.716 110.617 C 445.921 110.412, 440.782 108.113, 434.295 105.509 C 419.695 99.648, 419.364 99.528, 420.094 100.351 M 216.250 102.662 C 215.273 103.057, 215.024 113.354, 215.109 149.833 C 215.168 175.500, 215.506 199.200, 215.859 202.500 C 216.211 205.800, 216.346 185.125, 216.157 156.555 C 215.834 107.633, 215.918 104.533, 217.598 103.305 C 219.362 102.015, 218.671 101.685, 216.250 102.662 M 259.500 106.681 C 253.108 109.352, 250.874 110.744, 255 109.486 C 258.514 108.414, 267.709 104.163, 266.500 104.169 C 265.950 104.172, 262.800 105.302, 259.500 106.681 M 329.924 107.536 C 334.558 109.433, 338.512 110.821, 338.713 110.620 C 339.162 110.171, 323.888 103.970, 322.500 104.038 C 321.950 104.065, 325.291 105.639, 329.924 107.536 M 381 106.339 C 382.375 107.115, 384.625 108.048, 386 108.412 L 388.500 109.073 386 107.661 C 384.625 106.885, 382.375 105.952, 381 105.588 L 378.500 104.927 381 106.339 M 310.500 108.017 C 308.269 109.113, 307.606 109.710, 309 109.367 C 311.921 108.647, 316.964 106.086, 315.500 106.066 C 314.950 106.059, 312.700 106.937, 310.500 108.017 M 389.094 109.351 C 389.952 110.319, 414.271 120.063, 414.716 119.617 C 414.921 119.412, 409.782 117.113, 403.295 114.509 C 388.695 108.648, 388.364 108.528, 389.094 109.351 M 243 113.352 L 235.500 116.563 235.483 156.532 L 235.466 196.500 235.744 156.858 L 236.023 117.216 244.011 113.995 C 248.405 112.224, 252 110.601, 252 110.388 C 252 109.650, 250.468 110.155, 243 113.352 M 300.500 112.072 C 298.300 113.130, 297.625 113.715, 299 113.373 C 301.831 112.668, 307.030 110.062, 305.500 110.114 C 304.950 110.133, 302.700 111.014, 300.500 112.072 M 342 112.415 C 343.375 113.150, 345.625 114.031, 347 114.373 C 348.375 114.715, 347.700 114.130, 345.500 113.072 C 340.975 110.896, 338.170 110.370, 342 112.415 M 287.214 117.216 C 283.207 118.891, 280.098 120.432, 280.306 120.639 C 280.688 121.022, 294.970 115.364, 295.854 114.480 C 296.889 113.445, 294.189 114.300, 287.214 117.216 M 352 116.415 C 353.375 117.150, 355.625 118.031, 357 118.373 C 358.375 118.715, 357.700 118.130, 355.500 117.072 C 350.975 114.896, 348.170 114.370, 352 116.415 M 363 120.917 C 364.925 121.923, 367.625 123.035, 369 123.389 C 370.375 123.742, 369.080 122.899, 366.122 121.516 C 359.920 118.615, 357.825 118.213, 363 120.917 M 418 121.339 C 419.375 122.115, 421.625 123.048, 423 123.412 L 425.500 124.073 423 122.661 C 421.625 121.885, 419.375 120.952, 418 120.588 L 415.500 119.927 418 121.339 M 273.500 123.072 C 271.300 124.130, 270.625 124.715, 272 124.373 C 274.831 123.668, 280.030 121.062, 278.500 121.114 C 277.950 121.133, 275.700 122.014, 273.500 123.072 M 374 125.415 C 375.375 126.150, 377.625 127.031, 379 127.373 C 380.375 127.715, 379.700 127.130, 377.500 126.072 C 372.975 123.896, 370.170 123.370, 374 125.415 M 428 125.339 C 429.375 126.115, 431.625 127.048, 433 127.412 L 435.500 128.073 433 126.661 C 431.625 125.885, 429.375 124.952, 428 124.588 L 425.500 123.927 428 125.339 M 263.500 127.017 C 261.269 128.113, 260.606 128.710, 262 128.367 C 264.921 127.647, 269.964 125.086, 268.500 125.066 C 267.950 125.059, 265.700 125.937, 263.500 127.017 M 316.500 127 C 311.582 129.277, 312.523 129.575, 317.872 127.434 L 321.785 125.869 338.039 132.455 C 346.979 136.077, 354.464 138.869, 354.674 138.659 C 355.125 138.209, 322.669 124.966, 321.380 125.074 C 320.896 125.115, 318.700 125.982, 316.500 127 M 382 128.287 C 382 128.977, 395.148 134.185, 395.642 133.691 C 395.861 133.472, 393.669 132.371, 390.770 131.244 C 387.872 130.117, 384.712 128.877, 383.750 128.490 C 382.788 128.103, 382 128.011, 382 128.287 M 441.309 130.772 L 447.118 133.359 446.809 144.182 C 446.639 150.134, 446.837 155.003, 447.250 155.002 C 447.663 155.001, 448 150.025, 448 143.945 L 448 132.890 442.471 130.445 C 439.431 129.100, 436.618 128.041, 436.221 128.092 C 435.825 128.142, 438.114 129.348, 441.309 130.772 M 256.108 130.370 C 255.299 131.345, 255.051 140.518, 255.250 162.120 L 255.530 192.500 255.765 161.800 C 255.980 133.763, 256.152 131.011, 257.750 130.080 C 258.712 129.519, 258.993 129.047, 258.372 129.030 C 257.752 129.014, 256.733 129.617, 256.108 130.370 M 305.500 131.478 C 302.750 132.774, 300.950 133.843, 301.500 133.855 C 302.050 133.867, 304.750 132.817, 307.500 131.522 C 310.250 130.226, 312.050 129.157, 311.500 129.145 C 310.950 129.133, 308.250 130.183, 305.500 131.478 M 294.500 136.017 C 292.269 137.113, 291.606 137.710, 293 137.367 C 295.921 136.647, 300.964 134.086, 299.500 134.066 C 298.950 134.059, 296.700 134.937, 294.500 136.017 M 400 135.917 C 401.925 136.923, 404.625 138.023, 406 138.362 C 407.375 138.700, 406.250 137.885, 403.500 136.550 C 397.691 133.730, 394.821 133.211, 400 135.917 M 284.500 140.017 C 282.269 141.113, 281.606 141.710, 283 141.367 C 285.921 140.647, 290.964 138.086, 289.500 138.066 C 288.950 138.059, 286.700 138.937, 284.500 140.017 M 356.166 139.499 C 357.028 140.361, 376.314 148.019, 376.686 147.647 C 377.044 147.289, 357.514 139, 356.314 139 C 355.958 139, 355.891 139.225, 356.166 139.499 M 411 140.415 C 412.375 141.150, 414.625 142.031, 416 142.373 C 417.375 142.715, 416.700 142.130, 414.500 141.072 C 409.975 138.896, 407.170 138.370, 411 140.415 M 276.673 143.250 C 275.127 144.381, 274.991 146.840, 275.250 169 L 275.537 193.500 275.769 168.903 C 275.998 144.489, 276.017 144.298, 278.250 143.220 C 279.488 142.624, 280.024 142.105, 279.441 142.068 C 278.859 142.030, 277.613 142.563, 276.673 143.250 M 419.094 143.351 C 419.952 144.319, 444.271 154.063, 444.716 153.617 C 444.921 153.412, 439.782 151.113, 433.295 148.509 C 418.695 142.648, 418.364 142.528, 419.094 143.351 M 319 148.046 C 317.860 148.817, 318.100 148.922, 320.001 148.484 C 321.602 148.116, 325.169 149.008, 329.909 150.963 C 333.983 152.643, 337.488 153.846, 337.697 153.636 C 338.144 153.189, 322.967 146.980, 321.500 147.010 C 320.950 147.021, 319.825 147.487, 319 148.046 M 381.896 150.092 C 384.313 151.164, 386.470 151.864, 386.687 151.646 C 387.120 151.214, 379.414 147.956, 378.230 148.071 C 377.828 148.109, 379.478 149.019, 381.896 150.092 M 311.500 151.017 C 309.269 152.113, 308.606 152.710, 310 152.367 C 312.921 151.647, 317.964 149.086, 316.500 149.066 C 315.950 149.059, 313.700 149.937, 311.500 151.017 M 392.500 154.372 C 395.250 155.665, 398.625 157.018, 400 157.377 C 401.375 157.737, 400.177 156.942, 397.337 155.611 C 394.497 154.279, 391.122 152.927, 389.837 152.605 C 388.552 152.283, 389.750 153.078, 392.500 154.372 M 301.333 154.806 C 299.041 155.738, 296.906 156.760, 296.589 157.077 C 295.720 157.946, 295.852 198.085, 296.734 201.243 C 297.155 202.751, 297.351 193.414, 297.169 180.493 C 296.901 161.451, 297.091 156.995, 298.169 156.974 C 299.759 156.942, 307.943 153.173, 306.500 153.137 C 305.950 153.123, 303.625 153.874, 301.333 154.806 M 341 155.339 C 342.375 156.115, 344.625 157.048, 346 157.412 L 348.500 158.073 346 156.661 C 344.625 155.885, 342.375 154.952, 341 154.588 L 338.500 153.927 341 155.339 M 351 159.339 C 352.375 160.115, 354.625 161.048, 356 161.412 L 358.500 162.073 356 160.661 C 354.625 159.885, 352.375 158.952, 351 158.588 L 348.500 157.927 351 159.339 M 407.879 160.522 C 410.838 161.926, 413.444 162.889, 413.671 162.662 C 413.898 162.436, 412.152 161.470, 409.791 160.515 C 402.949 157.749, 402.043 157.752, 407.879 160.522 M 359.094 162.351 C 359.952 163.319, 384.271 173.063, 384.716 172.617 C 384.921 172.412, 379.782 170.113, 373.295 167.509 C 358.695 161.648, 358.364 161.528, 359.094 162.351 M 418.896 165.092 C 421.313 166.164, 423.470 166.864, 423.687 166.646 C 424.120 166.214, 416.414 162.956, 415.230 163.071 C 414.828 163.109, 416.478 164.019, 418.896 165.092 M 427 168.339 C 428.375 169.115, 430.625 170.048, 432 170.412 L 434.500 171.073 432 169.661 C 430.625 168.885, 428.375 167.952, 427 167.588 L 424.500 166.927 427 168.339 M 439.500 173.522 C 442.250 174.817, 445.063 175.905, 445.750 175.939 C 446.667 175.984, 447 178.813, 447 186.567 C 447 197.047, 446.981 197.130, 444.750 196.502 C 442.989 196.006, 442.826 196.097, 444 196.919 C 447.660 199.482, 448.075 198.383, 447.783 186.907 L 447.500 175.813 441.580 173.407 C 434.103 170.367, 432.939 170.431, 439.500 173.522 M 388 174.415 C 389.375 175.150, 391.625 176.031, 393 176.373 C 394.375 176.715, 393.700 176.130, 391.500 175.072 C 386.975 172.896, 384.170 172.370, 388 174.415 M 400.879 179.522 C 403.838 180.926, 406.444 181.889, 406.671 181.662 C 406.898 181.436, 405.152 180.470, 402.791 179.515 C 395.949 176.749, 395.043 176.752, 400.879 179.522 M 347.204 187.750 L 347.407 196.500 347.745 188.159 C 348.045 180.763, 348.277 179.896, 349.792 180.505 C 353.568 182.024, 354.372 182.060, 352 180.605 C 347.356 177.755, 346.984 178.309, 347.204 187.750 M 358.896 184.092 C 361.313 185.164, 363.470 185.864, 363.687 185.646 C 364.120 185.214, 356.414 181.956, 355.230 182.071 C 354.828 182.109, 356.478 183.019, 358.896 184.092 M 410 183.339 C 411.375 184.115, 413.625 185.048, 415 185.412 L 417.500 186.073 415 184.661 C 413.625 183.885, 411.375 182.952, 410 182.588 L 407.500 181.927 410 183.339 M 365.905 186.829 C 367.007 187.598, 367.190 189.714, 366.754 196.655 C 366.297 203.940, 366.366 204.635, 367.148 200.598 C 368.458 193.833, 367.892 186.762, 366 186.252 C 364.744 185.913, 364.728 186.007, 365.905 186.829 M 418 186.289 C 418 186.965, 441.138 196.196, 441.621 195.713 C 441.830 195.504, 437.163 193.411, 431.250 191.063 C 425.338 188.715, 419.938 186.567, 419.250 186.290 C 418.563 186.013, 418 186.012, 418 186.289 M 276.507 200.571 C 276.741 203.910, 277.399 207.735, 277.971 209.071 C 278.867 211.165, 278.921 211.018, 278.368 208 C 278.015 206.075, 277.356 202.250, 276.904 199.500 C 276.089 194.541, 276.085 194.550, 276.507 200.571 M 385.694 204.707 C 384.806 210.045, 384.248 214.581, 384.453 214.786 C 384.831 215.165, 386.378 207.874, 387.512 200.370 L 388.135 196.239 397.181 199.841 L 406.226 203.443 405.664 207.971 C 405.355 210.462, 404.866 214.075, 404.576 216 C 404.287 217.925, 404.712 217.025, 405.522 214 C 408.236 203.862, 407.855 203.177, 397.072 198.814 C 391.886 196.716, 387.568 195, 387.476 195 C 387.383 195, 386.582 199.368, 385.694 204.707 M 344.068 207.244 C 343.379 209.585, 341.338 214.304, 339.533 217.732 C 337.727 221.159, 336.654 223.714, 337.147 223.409 C 339.271 222.096, 346.849 204.515, 345.760 203.427 C 345.518 203.185, 344.757 204.903, 344.068 207.244 M 257.049 206.520 C 256.958 210.253, 261.109 223.430, 264.979 231.692 C 270.047 242.513, 275.097 249.991, 282.991 258.367 C 291.476 267.370, 299.013 273.086, 310.300 279.077 C 319.644 284.038, 322.313 284.748, 325 282.986 C 326.086 282.274, 325.672 282.161, 323.500 282.576 C 321.199 283.016, 318.342 282.069, 311.236 278.511 C 285.640 265.697, 266.827 242.138, 259.475 213.694 C 258.168 208.637, 257.076 205.409, 257.049 206.520 M 362.316 216.232 C 361.115 219.660, 360.283 222.617, 360.468 222.802 C 360.976 223.309, 365.119 211.856, 364.787 210.862 C 364.629 210.387, 363.517 212.804, 362.316 216.232 M 300.029 211.360 C 299.889 215.517, 314.709 235.168, 320.200 238.107 C 322.469 239.321, 328.054 235.278, 333.189 228.703 C 335.399 225.874, 334.280 226.706, 329.765 231.250 C 326.077 234.963, 322.500 238, 321.817 238 C 319.376 238, 307.427 224.435, 303.760 217.500 C 301.724 213.650, 300.045 210.887, 300.029 211.360 M 425.551 212.250 C 425.339 212.938, 424.383 216.875, 423.428 221 C 422.472 225.125, 420.859 230.936, 419.843 233.914 C 418.826 236.892, 418.188 239.521, 418.424 239.758 C 419.023 240.356, 423.566 225.724, 425.123 218.181 C 425.840 214.712, 426.875 212.117, 427.456 212.335 C 428.030 212.550, 429.625 213.031, 431 213.404 L 433.500 214.083 431 212.577 C 427.918 210.720, 426.058 210.609, 425.551 212.250 M 279.055 213 C 279.053 216.078, 284.885 228.006, 290.028 235.446 C 296.303 244.524, 305.949 253.661, 314.943 259.048 L 321.401 262.915 327.431 259.707 C 335.153 255.600, 351.389 239.641, 356.443 231.191 C 358.518 227.722, 359.986 224.652, 359.704 224.371 C 359.423 224.089, 357.696 226.703, 355.868 230.180 C 351.647 238.202, 336.872 253.127, 328.158 258.170 L 321.816 261.840 316.658 258.821 C 300.613 249.432, 289.021 236.033, 282.007 218.765 C 280.384 214.769, 279.055 212.175, 279.055 213 M 238.166 214.500 C 238.153 216.629, 240.731 225.192, 240.876 223.500 C 240.923 222.950, 240.335 220.250, 239.570 217.500 C 238.805 214.750, 238.173 213.400, 238.166 214.500 M 438.879 216.522 C 441.838 217.926, 444.444 218.889, 444.671 218.662 C 444.898 218.436, 443.152 217.470, 440.791 216.515 C 433.949 213.749, 433.043 213.752, 438.879 216.522 M 218.078 216.062 C 217.969 218.243, 221.929 233.096, 223.117 234.963 C 223.826 236.076, 223.896 235.811, 223.372 234 C 222.973 232.625, 221.637 227.675, 220.402 223 C 219.166 218.325, 218.121 215.203, 218.078 216.062 M 381.557 221.762 C 376.512 237.842, 365.239 254.050, 349.484 267.873 C 346.130 270.816, 345.645 271.474, 348 269.884 C 357.565 263.425, 370.610 247.717, 376.969 235 C 380.826 227.286, 384.530 217.197, 383.781 216.447 C 383.548 216.215, 382.547 218.606, 381.557 221.762 M 443.180 225.457 C 442.531 228.689, 442.174 231.508, 442.387 231.721 C 443.007 232.340, 445.229 222.186, 444.773 220.819 C 444.546 220.138, 443.829 222.225, 443.180 225.457 M 400.714 228.214 C 399.804 231.062, 399.225 233.558, 399.427 233.761 C 399.630 233.964, 400.563 231.821, 401.500 229 C 402.437 226.179, 403.016 223.683, 402.787 223.454 C 402.558 223.224, 401.625 225.367, 400.714 228.214 M 200.143 228.500 C 200.153 230.586, 202.802 238.250, 202.909 236.500 C 202.942 235.950, 202.332 233.475, 201.552 231 C 200.772 228.525, 200.138 227.400, 200.143 228.500 M 242.608 230 C 243.602 234.666, 251.969 251.127, 257.246 258.802 C 266.327 272.008, 281.744 286.225, 295.500 294.078 C 301.533 297.522, 299.510 295.887, 289.368 289.121 C 278.921 282.153, 267.839 271.658, 260.200 261.500 C 255.550 255.317, 246.624 238.978, 243.264 230.500 C 242.346 228.183, 242.197 228.069, 242.608 230 M 439.222 239.722 C 438.030 243.389, 437.221 246.555, 437.425 246.758 C 437.628 246.961, 438.787 244.145, 440 240.500 C 441.213 236.855, 442.022 233.689, 441.798 233.464 C 441.573 233.240, 440.414 236.056, 439.222 239.722 M 395.428 241.232 C 390.155 252.412, 380.994 265.247, 371.620 274.584 C 361.764 284.402, 354.029 290.084, 341.500 296.711 C 332.233 301.612, 332.059 302.513, 341.279 297.861 C 357.748 289.550, 377.624 272.050, 387.158 257.468 C 392.086 249.930, 399.378 236.045, 398.742 235.409 C 398.530 235.197, 397.039 237.817, 395.428 241.232 M 224.066 238 C 224.069 238.825, 224.749 240.625, 225.577 242 L 227.083 244.500 226.421 242 C 226.056 240.625, 225.376 238.825, 224.909 238 C 224.155 236.667, 224.061 236.667, 224.066 238 M 413.278 249.872 C 406.530 264.202, 397.800 276.384, 385.588 288.512 C 372.979 301.034, 363.248 308.072, 348.062 315.652 C 336.564 321.390, 335.120 322.779, 345.585 318.034 C 374.523 304.913, 400.732 279.054, 414.182 250.353 C 416.376 245.670, 418.002 241.669, 417.794 241.461 C 417.587 241.253, 415.555 245.038, 413.278 249.872 M 205.066 245 C 205.069 245.825, 205.749 247.625, 206.577 249 L 208.083 251.500 207.421 249 C 207.056 247.625, 206.376 245.825, 205.909 245 C 205.155 243.667, 205.061 243.667, 205.066 245 M 227 245.362 C 227 246.447, 232.968 258, 233.529 258 C 233.804 258, 232.619 255.188, 230.896 251.750 C 227.630 245.234, 227 244.202, 227 245.362 M 431.813 258.064 C 429.256 263.529, 427.380 268, 427.645 268 C 428.312 268, 437.281 248.947, 436.828 248.494 C 436.626 248.293, 434.369 252.599, 431.813 258.064 M 209.032 254.272 C 208.958 256.069, 217.280 271.282, 222.861 279.553 C 234.371 296.613, 248.800 311.113, 266 322.906 C 275.989 329.755, 287 335.824, 287 334.482 C 287 334.233, 284.381 332.707, 281.179 331.091 C 259.693 320.244, 235.494 297.931, 221.432 276 C 219.845 273.525, 216.413 267.450, 213.805 262.500 C 211.197 257.550, 209.049 253.847, 209.032 254.272 M 235.922 262.500 C 247.593 282.943, 270.716 304.331, 293.500 315.757 C 301.405 319.721, 318.062 326.048, 320.330 325.948 C 320.973 325.920, 316.775 324.196, 311 322.117 C 280.709 311.213, 256.263 292.315, 239.775 267.058 C 234.223 258.553, 232.516 256.534, 235.922 262.500 M 423.512 273.570 C 422.039 276.083, 417.940 282.046, 414.403 286.820 C 410.865 291.594, 409.601 293.700, 411.594 291.500 C 416.824 285.724, 428.001 269, 426.630 269 C 426.388 269, 424.985 271.056, 423.512 273.570 M 340.250 274.115 C 338.462 275.260, 337 276.389, 337 276.624 C 337 277.334, 342.826 274.090, 343.496 273.007 C 344.364 271.602, 343.956 271.742, 340.250 274.115 M 332 279 C 330.075 280.054, 328.860 280.935, 329.300 280.958 C 330.359 281.014, 336 278.081, 336 277.474 C 336 276.820, 335.941 276.842, 332 279 M 401.966 301.582 C 394.937 308.760, 383.505 318.027, 374.011 324.242 C 365.931 329.531, 364.042 331.022, 368 328.984 C 372.837 326.493, 382.579 319.598, 390 313.415 C 397.234 307.387, 408.958 296, 407.932 296 C 407.657 296, 404.972 298.512, 401.966 301.582 M 302 297.522 C 302 298.097, 310.677 302.022, 311.833 301.970 C 312.783 301.926, 309.583 300.142, 305.491 298.432 C 303.571 297.629, 302 297.220, 302 297.522 M 327 303 C 324.525 304.039, 323.175 304.880, 324 304.870 C 325.681 304.849, 334.069 301.159, 332.500 301.130 C 331.950 301.120, 329.475 301.961, 327 303 M 315.500 303.536 C 317.150 304.292, 319.175 304.896, 320 304.879 C 320.825 304.862, 319.925 304.241, 318 303.500 C 313.434 301.742, 311.638 301.768, 315.500 303.536 M 330.500 323.085 C 327.750 324.147, 326.800 324.762, 328.390 324.453 C 331.534 323.842, 338.124 321.166, 336.500 321.159 C 335.950 321.157, 333.250 322.024, 330.500 323.085 M 355.500 334.611 C 350.550 337.051, 347.625 338.752, 349 338.392 C 351.991 337.609, 365 331.182, 365 330.487 C 365 329.873, 365.960 329.456, 355.500 334.611 M 288 335.407 C 288 336.218, 303.568 342.268, 312.744 345.023 C 321.453 347.638, 322.414 347.741, 325.822 346.426 L 329.500 345.006 326 345.668 C 324.075 346.032, 321.825 346.291, 321 346.244 C 318.593 346.105, 299.992 339.967, 294.126 337.375 C 288.534 334.904, 288 334.732, 288 335.407" stroke="none" fill="#9dbde7" fill-rule="evenodd"/><path d="M 302 47.081 C 283.790 54.512, 248.141 68.957, 212 83.548 L 196.500 89.806 196.202 142.153 C 195.872 199.890, 196.491 210.969, 201.024 228.500 C 209.003 259.360, 223.025 283.280, 246.225 305.605 C 263.736 322.454, 283.958 334.479, 308.203 342.456 L 321.339 346.779 328.420 344.825 C 338.286 342.103, 354.190 335.657, 363.303 330.687 C 383.370 319.742, 404.373 301.187, 417.280 283 C 428.669 266.953, 439.186 243.648, 443.308 225.325 L 444.698 219.150 437.599 216.197 C 425.627 211.216, 426.734 210.869, 424.643 220.258 C 421.087 236.230, 413.727 253.517, 404.744 267 C 388.315 291.659, 365.093 310.540, 338.291 321.031 C 323.900 326.664, 321.398 326.838, 310.500 322.966 C 289.891 315.644, 272.794 304.801, 256.961 289.011 C 236.767 268.871, 224.093 245.258, 217.771 216 C 215.890 207.292, 215.683 202.202, 215.282 154.953 L 214.845 103.407 224.173 99.560 C 229.303 97.444, 245.425 90.886, 260 84.986 C 274.575 79.086, 294.430 71.040, 304.123 67.107 L 321.745 59.954 346.623 70.038 C 360.305 75.584, 387.700 86.671, 407.500 94.674 C 427.300 102.677, 444.303 109.649, 445.284 110.166 C 446.952 111.046, 447.050 110.405, 446.784 100.350 L 446.500 89.592 384 64.301 C 349.625 50.391, 321.500 39.035, 321.500 39.067 C 321.500 39.098, 312.725 42.705, 302 47.081 M 286.500 96.634 C 268.350 104.045, 249.530 111.737, 244.678 113.727 L 235.856 117.344 236.253 161.922 C 236.647 206.283, 236.662 206.549, 239.286 216.500 C 242.550 228.882, 244.939 235.120, 250.582 246 C 264.079 272.021, 288.568 293.131, 316.763 303.050 L 322.025 304.901 328.558 302.442 C 345.149 296.197, 358.847 287.331, 371.589 274.589 C 388.337 257.840, 399.778 237.046, 404.547 214.685 C 406.966 203.342, 407.216 203.837, 397 199.769 C 392.050 197.798, 387.997 196.481, 387.992 196.843 C 387.955 200.065, 385.435 212.108, 383.361 218.969 C 377.187 239.402, 363.788 258.341, 346.566 270.980 C 339.618 276.079, 324.381 283.973, 321.500 283.966 C 318.639 283.960, 302.139 274.994, 295.290 269.723 C 282.517 259.894, 272.021 246.724, 264.968 231.673 C 256.758 214.153, 255 201.429, 255 159.516 C 255 138.097, 255.303 131.004, 256.250 130.249 C 256.938 129.701, 262.675 127.201, 269 124.692 C 275.325 122.184, 289.444 116.502, 300.375 112.066 C 311.307 107.630, 321.042 104, 322.009 104 C 322.976 104, 327.982 105.753, 333.134 107.897 C 338.285 110.040, 365.450 121.103, 393.500 132.481 C 421.550 143.859, 445.063 153.404, 445.750 153.692 C 446.704 154.090, 447 151.726, 447 143.714 C 447 136.249, 446.639 133.069, 445.750 132.712 C 445.063 132.435, 435.950 128.746, 425.500 124.512 C 415.050 120.279, 397.050 112.988, 385.500 108.310 C 373.950 103.632, 355.185 96.024, 343.800 91.402 C 332.414 86.781, 322.289 83.036, 321.300 83.079 C 320.310 83.123, 304.650 89.222, 286.500 96.634 M 313.500 129.074 C 309.650 130.687, 299.593 134.789, 291.151 138.189 L 275.802 144.370 276.276 172.935 C 276.783 203.494, 277.354 207.775, 282.586 220.204 C 289.451 236.516, 301.098 249.716, 316.658 258.821 L 321.816 261.840 328.158 258.170 C 337.015 253.045, 351.523 238.283, 356.336 229.500 C 362.067 219.042, 365.902 206.681, 366.639 196.298 L 367.270 187.419 358.885 184.109 C 354.273 182.289, 349.938 180.572, 349.250 180.293 C 348.318 179.915, 347.996 181.659, 347.983 187.143 C 347.938 205.959, 339.106 225.620, 326.053 235.958 C 321.202 239.800, 320.645 239.583, 312.186 230.540 C 305.655 223.558, 299.221 211.671, 297.061 202.598 C 295.779 197.211, 295.520 158.014, 296.759 156.941 C 297.166 156.588, 303.008 154.160, 309.740 151.545 L 321.981 146.790 351.740 158.840 C 368.108 165.467, 395.328 176.506, 412.228 183.370 C 429.128 190.235, 443.866 196.140, 444.978 196.493 C 446.918 197.109, 447 196.718, 446.998 186.817 L 446.996 176.500 437.748 172.801 C 432.662 170.766, 418.600 165.085, 406.500 160.176 C 341.700 133.887, 322.013 126.007, 321.294 126.070 C 320.857 126.109, 317.350 127.461, 313.500 129.074" stroke="none" fill="#f8fafb" fill-rule="evenodd"/></svg>